<?xml version="1.0" encoding="UTF-8"?>
<svg version="1.1" xmlns="http://www.w3.org/2000/svg" width="356" height="297">
<path d="M0 0 C2.48667296 1.97471088 2.59741142 2.65104081 3.125 5.6875 C3.23073921 7.21533998 3.29024756 8.74677285 3.31445312 10.27807617 C3.33117065 11.18389938 3.34788818 12.0897226 3.3651123 13.022995 C3.37868774 13.99896133 3.39226318 14.97492767 3.40625 15.98046875 C3.43386414 17.50961662 3.43386414 17.50961662 3.46203613 19.06965637 C3.52072649 22.33804592 3.57343635 25.60649079 3.625 28.875 C3.75830595 37.14682094 3.918531 45.41717068 4.125 53.6875 C4.14320801 54.5550592 4.16141602 55.42261841 4.18017578 56.31646729 C4.23503399 58.64580888 4.31568871 60.97259069 4.40625 63.30078125 C4.44814453 64.57348877 4.49003906 65.84619629 4.53320312 67.1574707 C5.8596603 75.06970021 10.84272764 80.08287991 17.125 84.6875 C22.96477996 88.10322035 28.51597626 88.41739218 35.125 87.6875 C41.99566528 85.2700437 46.72624346 80.01621908 50.125 73.6875 C52.23265654 65.67401252 52.48387146 57.55909843 52.65234375 49.3203125 C52.7230072 46.78124163 52.79397973 44.24217935 52.86523438 41.703125 C52.96658073 37.74001408 53.06366532 33.77684969 53.15405273 29.81347656 C53.24544681 25.9611568 53.35415567 22.1096191 53.46484375 18.2578125 C53.48683334 17.07132111 53.50882294 15.88482971 53.53147888 14.66238403 C53.56483841 13.55708344 53.59819794 12.45178284 53.63256836 11.31298828 C53.6554039 10.34467072 53.67823944 9.37635315 53.70176697 8.37869263 C54.20050746 5.20737415 55.25647026 3.27882216 57.125 0.6875 C62.16299182 -1.83149591 69.61795583 -0.71437844 74.875 0.6875 C75.6175 1.0175 76.36 1.3475 77.125 1.6875 C78.41831964 10.63727188 78.32438976 19.60331412 78.3125 28.625 C78.31189575 29.46365601 78.3112915 30.30231201 78.31066895 31.16638184 C78.28962744 41.94219858 78.12022915 52.68399516 77.375 63.4375 C77.28255005 64.94944946 77.28255005 64.94944946 77.18823242 66.49194336 C76.18234198 78.76004643 70.45822127 91.79177873 61.6875 100.5625 C52.2021499 108.15449255 36.09031503 112.75147116 24.125 111.6875 C13.59572695 110.5188664 6.64224514 108.2314969 -0.875 100.6875 C-1.55820313 100.06359375 -2.24140625 99.4396875 -2.9453125 98.796875 C-7.53924567 94.22095725 -10.70838931 88.92432705 -13.75 83.25 C-14.13164307 82.57791504 -14.51328613 81.90583008 -14.90649414 81.21337891 C-21.80742811 67.56669275 -20.22221458 49.49858461 -20.19067383 34.63354492 C-20.18746521 31.46564769 -20.21125073 28.29864524 -20.23632812 25.13085938 C-20.23859734 23.09375116 -20.23930637 21.05664047 -20.23828125 19.01953125 C-20.247491 18.0840596 -20.25670074 17.14858795 -20.26618958 16.18476868 C-20.22664683 10.58328509 -19.54666124 6.64206178 -16.875 1.6875 C-11.68329703 -3.17972154 -6.30484522 -2.8782989 0 0 Z " fill="#2DD2FE" transform="translate(144.875,80.3125)"/>
<path d="M0 0 C0.33 0 0.66 0 1 0 C1.11660586 7.74601377 1.20507154 15.4918163 1.25906086 23.23849106 C1.28499271 26.83688432 1.32008219 30.43467072 1.37719727 34.03271484 C1.43211419 37.51465945 1.46154341 40.99602592 1.47438622 44.47837067 C1.48792158 46.43245033 1.52685661 48.38630212 1.56648254 50.34002686 C1.56905885 58.66514907 0.39435291 65.7889745 -4 73 C-6.16996765 74.83001709 -6.16996765 74.83001709 -8 76 C-7.731875 75.484375 -7.46375 74.96875 -7.1875 74.4375 C-2.1953953 64.19054824 -1.82659555 55.05187589 -1.46484375 43.75 C-1.42186661 42.49614502 -1.37888947 41.24229004 -1.33460999 39.95043945 C-1.22188535 36.64292204 -1.11227387 33.33532131 -1.00421143 30.02764893 C-0.89282196 26.64204094 -0.777283 23.25657474 -0.66210938 19.87109375 C-0.43761079 13.24751899 -0.21722066 6.62381722 0 0 Z " fill="#C6EFFD" transform="translate(199,86)"/>
</svg>
